<svg xmlns="http://www.w3.org/2000/svg" viewBox="0 0 180 150" fill="none"><defs><filter id="pencil"><feTurbulence type="fractalNoise" baseFrequency=".14" numOctaves="3" seed="8" result="noise"/><feDisplacementMap in="SourceGraphic" in2="noise" scale="1.2"/></filter></defs><g stroke="#315ba3" stroke-width="3" stroke-linecap="round" stroke-linejoin="round" filter="url(#pencil)"><path d="M80 62C52 25 17 19 21 53C23 80 47 84 80 69M100 61C125 24 162 21 158 53C156 82 130 85 100 69M79 57Q89 51 101 58L99 75Q90 81 80 74ZM81 75Q72 102 46 125L47 105 27 107Q61 87 79 68M98 74Q108 104 135 125L133 105 154 106Q119 86 101 67M35 47Q56 48 76 64M144 47Q121 50 104 64M65 93l-15 19M114 93l16 19"/></g></svg>
